<svg id="Capa_1" enable-background="new 0 0 497 497" height="512" viewBox="0 0 497 497" width="512" xmlns="http://www.w3.org/2000/svg"><g id="_x3C_Group_x3E__45_"><path d="m487 186.814h-477c-5.523 0-10 4.477-10 10v32.241c0 5.523 4.477 10 10 10h477c5.523 0 10-4.477 10-10v-32.241c0-5.523-4.477-10-10-10z" fill="#766d78"/><path d="m343 194.055v-7.215c-.01-.01-.016-.016-.026-.026h-56.729v27.241h-251.245c-5.523 0-10-4.477-10-10v-17.241h-15c-5.523 0-10 4.477-10 10v32.241c0 5.523 4.477 10 10 10h276.245 56.755 144c5.523 0 10-4.477 10-10v-15h-134c-11.046 0-20-8.954-20-20z" fill="#655e67"/><path d="m457.367 343.648-208.492-120.372 25.942-44.932 208.492 120.372c7.426 4.287 10.389 13.057 6.619 19.587l-12.288 21.284c-3.771 6.53-12.847 8.349-20.273 4.061z" fill="#8c818f"/><path d="m40.799 342.719 183.954-106.205 17.68-23.579-19.643-34.023-207.424 119.755c-7.388 4.265-10.38 12.913-6.684 19.316l12.047 20.867c3.696 6.402 12.682 8.134 20.07 3.869z" fill="#8c818f"/><g fill="#766d78"><path d="m34.521 321.524c-3.696-6.402-3.303-9.011 4.085-13.277l194.215-111.961-10.031-17.374-207.424 119.755c-7.388 4.265-10.38 12.913-6.684 19.316l12.047 20.866c3.696 6.402 12.682 8.135 20.07 3.87l4.592-2.651z"/><path d="m477.367 333.648-124.367-71.803c-6.188-3.573-10-10.175-10-17.321v-26.816l-56.755-32.768v38.363l-17.369-10.028 16.611-28.772-10.67-6.16-25.942 44.932 37.369 21.575 44.442 25.659 126.68 73.138c7.426 4.287 16.502 2.469 20.272-4.061l2.651-4.591c-.99-.351-1.97-.797-2.922-1.347z"/><path d="m261.436 159.419-.144 69.903-88.388-42.656 52.849-34.042c2.434-1.568 5.428-2.004 8.208-1.195z"/><path d="m169.34 209.771 55.413 26.742 23.47-13.55-25.432-44.052z"/></g><path d="m191.161 220.302 41.661-24.016-32.258-4.72-31.224 18.205z" fill="#655e67"/><path d="m257.354 281.901-.166-47.48-11.273-5.505-61.633 35.585 43.588 17.691c2.04 1.144 4.457 1.414 6.7.748z" fill="#766d78"/><path d="m276.996 288.682 36.755-25.841c2.664-1.873 2.897-5.38 2.897-8.636l1.352-13.697v-53.266c0-3.256-1.585-6.308-4.249-8.181l-34.507-24.26-3.064.19c-6.626-4.658-12.936-1.69-12.936 6.409v119.1c.001 8.101 7.126 12.84 13.752 8.182z" fill="#8c818f"/><path d="m273.245 252.077-4.34-8.681-7.66-14.074-13.021-6.358-51.65 29.821-19.542 11.283 48.964 27.462c2.357 1.322 5.148 1.634 7.739.864l27.703-8.228zm-43.25 19.452-8.188-4.593c-3.381-1.896-3.411-6.753-.054-8.691l13.992-8.078c3.333-1.924 7.5.481 7.5 4.33v12.528c0 2.213-1.455 4.163-3.576 4.793l-1.935.575c-2.591.77-5.382.458-7.739-.864z" fill="#655e67"/><path d="m243.245 154.128v32.35c0 3.686-3.853 6.105-7.173 4.503l-39.942-19.276-23.226 14.961 88.388 42.656 7.612-24.479-7.468-45.424z" fill="#655e67"/><path d="m287.12 262.219c-3.313 2.329-7.876-.04-7.876-4.09v-103.328l-2.249-1.581c-6.626-4.658-15.751.081-15.751 8.181v121.1c0 8.1 9.126 12.839 15.751 8.181l36.755-25.841c2.664-1.873 4.249-4.925 4.249-8.181v-16.151z" fill="#766d78"/></g></svg>